<?xml version="1.0" encoding="utf-8"?>
<!-- Generator: Adobe Illustrator 23.0.2, SVG Export Plug-In . SVG Version: 6.00 Build 0)  -->
<svg version="1.1" id="Capa_1" xmlns="http://www.w3.org/2000/svg" xmlns:xlink="http://www.w3.org/1999/xlink" x="0px" y="0px"
	 viewBox="0 0 162.9 42.9" style="enable-background:new 0 0 162.9 42.9;" xml:space="preserve">
<g>
	<g id="XMLID_226_">
		<g id="XMLID_233_">
			<path id="XMLID_247_" d="M71,10.3v23.3h-4.7V18.9L60,33.6h-3.4l-6.3-14.6v14.6h-4.7V10.3h5.2l7.5,17.2l7.5-17.2H71z"/>
			<path id="XMLID_244_" d="M76.3,31.2c-1.8-1.8-2.7-4.1-2.7-6.9c0-2.8,0.9-5.1,2.7-6.9s4.1-2.6,6.8-2.6c2.7,0,5,0.9,6.8,2.6
				s2.7,4,2.7,6.9c0,2.8-0.9,5.1-2.8,6.9c-1.8,1.8-4.1,2.6-6.8,2.6C80.4,33.8,78.1,33,76.3,31.2z M83.1,29.9c1.3,0,2.4-0.5,3.4-1.5
				c0.9-1,1.4-2.3,1.4-4.1c0-1.8-0.5-3.1-1.4-4.1c-0.9-1-2.1-1.4-3.4-1.4c-1.3,0-2.4,0.5-3.4,1.4c-0.9,1-1.4,2.3-1.4,4.1
				c0,1.8,0.5,3.1,1.4,4.1C80.7,29.4,81.8,29.9,83.1,29.9z"/>
			<path id="XMLID_242_" d="M99.8,15.1v2.8c1.2-2,3.1-3,5.7-3c2.1,0,3.8,0.7,5.2,2.1c1.3,1.4,2,3.3,2,5.8v10.9H108V23.4
				c0-1.4-0.4-2.6-1.1-3.3c-0.7-0.8-1.7-1.2-3-1.2s-2.3,0.4-3,1.2c-0.7,0.8-1.1,1.9-1.1,3.3v10.2h-4.7V15.1H99.8z"/>
			<path id="XMLID_240_" d="M116.1,33.6V8.9h4.7v24.7H116.1z"/>
			<path id="XMLID_237_" d="M126,31.2c-1.8-1.8-2.7-4.1-2.7-6.9c0-2.8,0.9-5.1,2.7-6.9c1.8-1.7,4.1-2.6,6.8-2.6c2.7,0,5,0.9,6.8,2.6
				s2.7,4,2.7,6.9c0,2.8-0.9,5.1-2.8,6.9c-1.8,1.8-4.1,2.6-6.8,2.6C130.1,33.8,127.8,33,126,31.2z M132.8,29.9
				c1.3,0,2.4-0.5,3.4-1.5c0.9-1,1.4-2.3,1.4-4.1c0-1.8-0.5-3.1-1.4-4.1c-0.9-1-2.1-1.4-3.4-1.4c-1.3,0-2.4,0.5-3.4,1.4
				c-0.9,1-1.4,2.3-1.4,4.1c0,1.8,0.5,3.1,1.4,4.1C130.4,29.4,131.5,29.9,132.8,29.9z"/>
			<path id="XMLID_234_" d="M146.1,31.1c-1.7-1.8-2.5-4.1-2.5-6.9c0-2.8,0.8-5.1,2.5-6.8s3.7-2.7,6.3-2.7s4.5,1,5.8,3.1v-2.9h4.7
				v18.6c0,2.6-0.8,4.8-2.3,6.5c-1.6,1.7-3.7,2.5-6.6,2.5c-2.8,0-5-0.6-6.7-1.8c-1.7-1.2-2.6-2.8-2.8-5h4.6c0.3,0.8,0.8,1.5,1.7,2
				c0.8,0.5,1.9,0.7,3.1,0.7c1.2,0,2.3-0.4,3.1-1.2c0.8-0.8,1.3-2.1,1.3-3.7v-3.2c-1.4,2.2-3.3,3.4-5.8,3.4
				C149.8,33.8,147.8,32.9,146.1,31.1z M156.7,28.3c1-1,1.5-2.3,1.5-4c0-1.7-0.5-3-1.5-4c-1-1-2.1-1.5-3.4-1.5
				c-1.3,0-2.5,0.5-3.4,1.4c-1,1-1.5,2.3-1.5,4c0,1.7,0.5,3,1.5,4c1,1,2.1,1.5,3.4,1.5S155.7,29.3,156.7,28.3z"/>
		</g>
		<g id="XMLID_227_">
			<g id="XMLID_230_">
				<polygon id="XMLID_232_" points="10.4,33.6 0.1,33.6 0.1,0 10.4,10.3 				"/>
				<polygon id="XMLID_231_" points="36.2,33.6 25.9,33.6 25.9,0 36.2,10.3 				"/>
			</g>
			<g id="XMLID_228_">
				<polygon id="XMLID_229_" points="13,12.9 13,33.6 23.3,33.6 23.3,23.2 				"/>
			</g>
		</g>
	</g>
	<g>
		<path d="M0,39.6h0.4v2.8h1.5v0.3H0V39.6z"/>
		<path d="M2.6,41.5c0-0.8,0.5-1.3,1.1-1.3c0.6,0,1.1,0.5,1.1,1.3c0,0.8-0.5,1.3-1.1,1.3C3.1,42.8,2.6,42.4,2.6,41.5z M4.4,41.5
			c0-0.6-0.3-0.9-0.7-0.9c-0.4,0-0.7,0.3-0.7,0.9c0,0.6,0.3,0.9,0.7,0.9C4.1,42.5,4.4,42.2,4.4,41.5z"/>
		<path d="M6,43c0.1,0.3,0.2,0.5,0.6,0.5c0.4,0,0.6-0.2,0.6-0.6v-0.3h0c-0.1,0.1-0.3,0.3-0.7,0.3c-0.6,0-1.1-0.5-1.1-1.3
			c0-0.8,0.5-1.3,1.1-1.3c0.3,0,0.5,0.1,0.7,0.3h0v-0.2h0.4v2.5c0,0.7-0.4,1.1-1,1.1c-0.5,0-0.8-0.3-1-0.7L6,43z M7.3,41.2
			c0-0.3-0.2-0.6-0.6-0.6c-0.5,0-0.7,0.4-0.7,0.9c0,0.6,0.3,0.9,0.7,0.9c0.4,0,0.6-0.3,0.6-0.5V41.2z"/>
		<path d="M8.7,40.3h1.2v2.1h0.8v0.3h-2v-0.3h0.8v-1.8H8.7V40.3z M9.5,39.4h0.4v0.4H9.5V39.4z"/>
		<path d="M11.9,41.9c0.1,0.4,0.3,0.6,0.8,0.6c0.5,0,0.6-0.2,0.6-0.4c0-0.2-0.1-0.3-0.8-0.5c-0.8-0.2-0.9-0.4-0.9-0.7
			c0-0.3,0.3-0.6,0.9-0.6c0.6,0,0.9,0.3,1,0.7l-0.3,0.1c-0.1-0.3-0.3-0.5-0.7-0.5S12,40.8,12,40.9c0,0.2,0,0.3,0.8,0.4
			c0.8,0.2,0.9,0.4,0.9,0.8c0,0.4-0.2,0.7-1,0.7c-0.8,0-1.1-0.4-1.1-0.9L11.9,41.9z"/>
		<path d="M15.2,40.7h-0.8v-0.3h0.8v-0.6h0.4v0.6h0.9v0.3h-0.9V42c0,0.3,0.1,0.4,0.3,0.4h0.4v0.4h-0.4c-0.5,0-0.7-0.3-0.7-0.7V40.7z
			"/>
		<path d="M17.6,40.3h1.2v2.1h0.8v0.3h-2v-0.3h0.8v-1.8h-0.8V40.3z M18.4,39.4h0.4v0.4h-0.4V39.4z"/>
		<path d="M22.6,41.9c-0.1,0.6-0.5,0.9-1,0.9c-0.6,0-1.1-0.5-1.1-1.3c0-0.8,0.5-1.3,1.1-1.3c0.5,0,0.9,0.4,1,0.9l-0.4,0.1
			c-0.1-0.3-0.2-0.6-0.6-0.6c-0.4,0-0.7,0.3-0.7,0.9c0,0.6,0.3,0.9,0.7,0.9c0.4,0,0.6-0.3,0.6-0.7L22.6,41.9z"/>
		<path d="M23.7,41.9c0.1,0.4,0.3,0.6,0.8,0.6c0.5,0,0.6-0.2,0.6-0.4c0-0.2-0.1-0.3-0.8-0.5c-0.8-0.2-0.9-0.4-0.9-0.7
			c0-0.3,0.3-0.6,0.9-0.6c0.6,0,0.9,0.3,1,0.7l-0.3,0.1c-0.1-0.3-0.3-0.5-0.7-0.5c-0.4,0-0.5,0.2-0.5,0.3c0,0.2,0,0.3,0.8,0.4
			c0.8,0.2,0.9,0.4,0.9,0.8c0,0.4-0.2,0.7-1,0.7c-0.8,0-1.1-0.4-1.1-0.9L23.7,41.9z"/>
		<path d="M30.7,42.5L30.7,42.5c-0.1,0.1-0.3,0.3-0.7,0.3c-0.6,0-0.8-0.3-0.8-0.7c0-0.4,0.2-0.6,0.8-0.8c0.4-0.1,0.7-0.2,0.7-0.4
			c0-0.2-0.2-0.4-0.5-0.4c-0.4,0-0.5,0.2-0.6,0.5L29.2,41c0.1-0.4,0.4-0.7,0.9-0.7c0.5,0,0.9,0.3,0.9,0.8v1.7h-0.3V42.5z M29.5,42.1
			c0,0.2,0.1,0.4,0.5,0.4c0.5,0,0.7-0.2,0.7-0.5v-0.6h0c0,0.1-0.1,0.2-0.6,0.3C29.6,41.8,29.5,41.9,29.5,42.1z"/>
		<path d="M32.1,40.3h0.4v0.2h0c0.1-0.2,0.4-0.3,0.7-0.3c0.5,0,0.9,0.3,0.9,0.9v1.6h-0.4v-1.5c0-0.4-0.2-0.7-0.5-0.7
			c-0.4,0-0.6,0.2-0.6,0.6v1.5h-0.4V40.3z"/>
		<path d="M36.7,42.5L36.7,42.5c-0.1,0.1-0.4,0.3-0.7,0.3c-0.6,0-1.1-0.5-1.1-1.3c0-0.8,0.5-1.3,1.1-1.3c0.3,0,0.5,0.2,0.7,0.3h0
			v-1.1H37v3.3h-0.3V42.5z M36.6,41.2c0-0.3-0.2-0.6-0.6-0.6c-0.5,0-0.7,0.4-0.7,0.9c0,0.6,0.3,0.9,0.7,0.9c0.4,0,0.6-0.3,0.6-0.5
			V41.2z"/>
		<path d="M40.9,39.6h1.8v0.3h-1.5v1.2h1.3v0.3h-1.3v1.4h-0.4V39.6z"/>
		<path d="M43.6,41.5c0-0.8,0.5-1.3,1.1-1.3c0.6,0,1.1,0.5,1.1,1.3c0,0.8-0.5,1.3-1.1,1.3C44.1,42.8,43.6,42.4,43.6,41.5z
			 M45.4,41.5c0-0.6-0.3-0.9-0.7-0.9c-0.4,0-0.7,0.3-0.7,0.9c0,0.6,0.3,0.9,0.7,0.9C45.1,42.5,45.4,42.2,45.4,41.5z"/>
		<path d="M47,40.3h0.4v0.4h0c0.1-0.2,0.4-0.4,0.7-0.4c0.4,0,0.6,0.2,0.8,0.6L48.4,41c-0.1-0.2-0.2-0.4-0.5-0.4
			c-0.4,0-0.6,0.3-0.6,0.7v1.3H47V40.3z"/>
		<path d="M49.4,40.3h0.4l0.3,1.8h0l0.3-1h0.3l0.3,1h0l0.3-1.8h0.4l-0.4,2.4h-0.3l-0.4-1.2h0l-0.4,1.2h-0.3L49.4,40.3z"/>
		<path d="M54.2,42.5L54.2,42.5c-0.1,0.1-0.3,0.3-0.7,0.3c-0.6,0-0.8-0.3-0.8-0.7c0-0.4,0.2-0.6,0.8-0.8c0.4-0.1,0.7-0.2,0.7-0.4
			c0-0.2-0.2-0.4-0.5-0.4c-0.4,0-0.5,0.2-0.6,0.5L52.7,41c0.1-0.4,0.4-0.7,0.9-0.7c0.5,0,0.9,0.3,0.9,0.8v1.7h-0.3V42.5z M53,42.1
			c0,0.2,0.1,0.4,0.5,0.4c0.5,0,0.7-0.2,0.7-0.5v-0.6h0c0,0.1-0.1,0.2-0.6,0.3C53.1,41.8,53,41.9,53,42.1z"/>
		<path d="M55.9,40.3h0.4v0.4h0c0.1-0.2,0.4-0.4,0.7-0.4c0.4,0,0.6,0.2,0.8,0.6L57.3,41c-0.1-0.2-0.2-0.4-0.5-0.4
			c-0.4,0-0.6,0.3-0.6,0.7v1.3h-0.4V40.3z"/>
		<path d="M60.1,42.5L60.1,42.5c-0.1,0.1-0.4,0.3-0.7,0.3c-0.6,0-1.1-0.5-1.1-1.3c0-0.8,0.5-1.3,1.1-1.3c0.3,0,0.5,0.2,0.7,0.3h0
			v-1.1h0.4v3.3h-0.3V42.5z M60.1,41.2c0-0.3-0.2-0.6-0.6-0.6c-0.5,0-0.7,0.4-0.7,0.9c0,0.6,0.3,0.9,0.7,0.9c0.4,0,0.6-0.3,0.6-0.5
			V41.2z"/>
		<path d="M61.5,40.3h1.2v2.1h0.8v0.3h-2v-0.3h0.8v-1.8h-0.8V40.3z M62.3,39.4h0.4v0.4h-0.4V39.4z"/>
		<path d="M64.4,40.3h0.4v0.2h0c0.1-0.2,0.4-0.3,0.7-0.3c0.5,0,0.9,0.3,0.9,0.9v1.6H66v-1.5c0-0.4-0.2-0.7-0.5-0.7
			c-0.4,0-0.6,0.2-0.6,0.6v1.5h-0.4V40.3z"/>
		<path d="M67.7,43c0.1,0.3,0.2,0.5,0.6,0.5c0.4,0,0.6-0.2,0.6-0.6v-0.3h0c-0.1,0.1-0.3,0.3-0.7,0.3c-0.6,0-1.1-0.5-1.1-1.3
			c0-0.8,0.5-1.3,1.1-1.3c0.3,0,0.5,0.1,0.7,0.3h0v-0.2h0.4v2.5c0,0.7-0.4,1.1-1,1.1c-0.5,0-0.8-0.3-1-0.7L67.7,43z M69,41.2
			c0-0.3-0.2-0.6-0.6-0.6c-0.5,0-0.7,0.4-0.7,0.9c0,0.6,0.3,0.9,0.7,0.9c0.4,0,0.6-0.3,0.6-0.5V41.2z"/>
		<path d="M73.3,41.6c0.1,0.6,0.3,0.9,0.9,0.9c0.5,0,0.7-0.3,0.7-0.6c0-0.3-0.1-0.5-0.8-0.7c-0.6-0.2-1-0.4-1-0.9
			c0-0.5,0.4-0.8,1-0.8c0.5,0,1,0.3,1.1,0.9l-0.4,0.1c-0.1-0.4-0.2-0.6-0.7-0.6c-0.4,0-0.6,0.2-0.6,0.5c0,0.2,0.1,0.3,0.7,0.6
			c0.8,0.3,1,0.5,1,1c0,0.5-0.4,0.9-1.1,0.9c-0.7,0-1.1-0.4-1.2-1.2L73.3,41.6z"/>
		<path d="M78,42.2c-0.2,0.3-0.5,0.6-1,0.6c-0.6,0-1.1-0.5-1.1-1.3c0-0.8,0.5-1.3,1.1-1.3c0.6,0,1.1,0.5,1.1,1.3v0.1h-1.8
			c0,0.4,0.2,0.8,0.7,0.8c0.5,0,0.6-0.3,0.7-0.5L78,42.2z M77.7,41.4c0-0.4-0.2-0.8-0.7-0.8c-0.5,0-0.7,0.5-0.7,0.8H77.7z"/>
		<path d="M79.3,40.3h0.4v0.4h0c0.1-0.2,0.4-0.4,0.7-0.4c0.4,0,0.6,0.2,0.8,0.6L80.8,41c-0.1-0.2-0.2-0.4-0.5-0.4
			c-0.4,0-0.6,0.3-0.6,0.7v1.3h-0.4V40.3z"/>
		<path d="M81.8,40.3h0.4l0.7,1.9h0l0.7-1.9h0.4l-1,2.4h-0.3L81.8,40.3z"/>
		<path d="M85,40.3h1.2v2.1H87v0.3h-2v-0.3h0.8v-1.8H85V40.3z M85.8,39.4h0.4v0.4h-0.4V39.4z"/>
		<path d="M90,41.9c-0.1,0.6-0.5,0.9-1,0.9c-0.6,0-1.1-0.5-1.1-1.3c0-0.8,0.5-1.3,1.1-1.3c0.5,0,0.9,0.4,1,0.9l-0.4,0.1
			c-0.1-0.3-0.2-0.6-0.6-0.6c-0.4,0-0.7,0.3-0.7,0.9c0,0.6,0.3,0.9,0.7,0.9c0.4,0,0.6-0.3,0.6-0.7L90,41.9z"/>
		<path d="M92.8,42.2c-0.2,0.3-0.5,0.6-1,0.6c-0.6,0-1.1-0.5-1.1-1.3c0-0.8,0.5-1.3,1.1-1.3c0.6,0,1.1,0.5,1.1,1.3v0.1h-1.8
			c0,0.4,0.2,0.8,0.7,0.8c0.5,0,0.6-0.3,0.7-0.5L92.8,42.2z M92.5,41.4c0-0.4-0.2-0.8-0.7-0.8c-0.5,0-0.7,0.5-0.7,0.8H92.5z"/>
		<path d="M94.1,41.9c0.1,0.4,0.3,0.6,0.8,0.6c0.5,0,0.6-0.2,0.6-0.4c0-0.2-0.1-0.3-0.8-0.5c-0.8-0.2-0.9-0.4-0.9-0.7
			c0-0.3,0.3-0.6,0.9-0.6c0.6,0,0.9,0.3,1,0.7l-0.3,0.1c-0.1-0.3-0.3-0.5-0.7-0.5c-0.4,0-0.5,0.2-0.5,0.3c0,0.2,0,0.3,0.8,0.4
			c0.8,0.2,0.9,0.4,0.9,0.8c0,0.4-0.2,0.7-1,0.7c-0.8,0-1.1-0.4-1.1-0.9L94.1,41.9z"/>
	</g>
</g>
</svg>
